<svg width="174" height="43" viewBox="0 0 174 43" fill="none" xmlns="http://www.w3.org/2000/svg">
    <path d="M8.87064 37.5825C8.87064 38.7007 9.01042 39.5219 9.28998 40.0461C9.60448 40.5353 10.1811 40.8848 11.0197 41.0944C11.8933 41.3041 13.2562 41.4089 15.1082 41.4089C15.2131 41.4089 15.2655 41.5138 15.2655 41.7234C15.2655 41.9331 15.2131 42.0379 15.1082 42.0379C13.6755 42.0379 12.5573 42.0205 11.7536 41.9855L7.19331 41.9331L3.6814 41.9855C3.01746 42.0205 2.12637 42.0379 1.00815 42.0379C0.938265 42.0379 0.90332 41.9331 0.90332 41.7234C0.90332 41.5138 0.938265 41.4089 1.00815 41.4089C2.33604 41.4089 3.29701 41.3216 3.89107 41.1468C4.52007 40.9721 4.9394 40.6402 5.14907 40.1509C5.35873 39.6268 5.46356 38.8405 5.46356 37.7922V13.5233C5.46356 12.475 5.35873 11.7062 5.14907 11.217C4.9394 10.7277 4.52007 10.3958 3.89107 10.221C3.29701 10.0114 2.33604 9.90655 1.00815 9.90655C0.938265 9.90655 0.90332 9.80172 0.90332 9.59205C0.90332 9.38239 0.938265 9.27755 1.00815 9.27755L3.62898 9.32997C5.09665 9.39986 6.26729 9.4348 7.1409 9.4348C8.01451 9.4348 8.99295 9.38239 10.0762 9.27755C10.4956 9.27755 11.1595 9.26008 12.0681 9.22513C12.9766 9.15525 13.7629 9.1203 14.4268 9.1203C17.6417 9.1203 20.2101 9.83666 22.132 11.2694C24.0889 12.7021 25.0674 14.8861 25.0674 17.8215C25.0674 20.1278 24.4908 22.0672 23.3376 23.6397C22.2194 25.2122 20.7692 26.3828 18.987 27.1516C17.2049 27.9204 15.3703 28.3048 13.4833 28.3048C12.4699 28.3048 11.6313 28.2174 10.9673 28.0427C10.8625 28.0427 10.8101 27.9553 10.8101 27.7806C10.8101 27.6758 10.8275 27.5709 10.8625 27.4661C10.9324 27.3613 11.0023 27.3263 11.0721 27.3613C11.6313 27.5011 12.2603 27.5709 12.9591 27.5709C15.2655 27.5709 17.2049 26.8196 18.7774 25.317C20.3848 23.8144 21.1885 21.6479 21.1885 18.8174C21.1885 16.0568 20.4372 13.8902 18.9346 12.3177C17.432 10.7103 15.5101 9.90655 13.1688 9.90655C11.9108 9.90655 11.0023 9.97644 10.4431 10.1162C9.88403 10.256 9.48217 10.588 9.23756 11.1121C8.99295 11.6014 8.87064 12.44 8.87064 13.6281V37.5825Z" fill="#C0D4C2"/>
    <path d="M70.8844 14.6588H69.7378L76.3616 0.0189667H77.6413L84.2957 14.6588H83.016L80.8456 9.7447H74.2833L74.6007 8.82332H80.4464L76.9349 0.858451L70.8844 14.6588Z" fill="#8DB291"/>
    <path d="M87.367 13.0822C88.4522 13.4507 89.4521 13.635 90.3666 13.635C93.1444 13.635 94.5333 12.0891 94.5333 8.99736C94.5333 6.24685 93.1513 4.8716 90.3871 4.8716C89.4316 4.8716 88.4249 4.9535 87.367 5.1173V13.0822ZM86.292 4.34948C87.5137 4.056 88.8856 3.90926 90.4076 3.90926C93.8542 3.90926 95.5776 5.61212 95.5776 9.01783C95.5776 12.7785 93.844 14.6588 90.3769 14.6588C89.5169 14.6588 88.5136 14.4881 87.367 14.1469V18.5491H86.292V4.34948Z" fill="#8DB291"/>
    <path d="M97.7377 11.6182C97.7377 9.48194 99.1573 8.41381 101.997 8.41381C103 8.41381 104.071 8.48207 105.211 8.61857V7.29791C105.211 5.65307 104.177 4.83065 102.109 4.83065C101.004 4.83065 99.8705 5.00127 98.7103 5.34253V4.42114C99.8705 4.07989 101.004 3.90926 102.109 3.90926C104.894 3.90926 106.286 5.02175 106.286 7.24673V14.6588H105.631L105.385 13.594C104.041 14.3039 102.737 14.6588 101.474 14.6588C98.9833 14.6588 97.7377 13.6452 97.7377 11.6182ZM101.997 9.3352C99.874 9.3352 98.8127 10.086 98.8127 11.5875C98.8127 13.0207 99.6999 13.7374 101.474 13.7374C102.785 13.7374 104.03 13.3893 105.211 12.6931V9.53995C104.071 9.40345 103 9.3352 101.997 9.3352Z" fill="#8DB291"/>
    <path d="M109.572 14.6588V3.90926H110.34L110.473 5.69061C111.552 4.50304 112.753 3.90926 114.077 3.90926V4.76922C112.794 4.76922 111.651 5.39372 110.647 6.64271V14.6588H109.572Z" fill="#8DB291"/>
    <path d="M116.043 2.16887H116.8L116.995 3.90926H120.22V4.83065H117.087V11.6182C117.087 13.031 117.605 13.7374 118.643 13.7374H120.22V14.6588H118.663C116.916 14.6588 116.043 13.693 116.043 11.7615V2.16887Z" fill="#8DB291"/>
    <path d="M122.513 14.6588V3.90926H123.281L123.393 5.26063C124.492 4.35972 125.683 3.90926 126.966 3.90926C128.659 3.90926 129.754 4.40067 130.252 5.38348C131.488 4.40067 132.74 3.90926 134.01 3.90926C136.412 3.90926 137.613 5.10024 137.613 7.48219V14.6588H136.538V7.48219C136.538 5.7418 135.692 4.8716 133.999 4.8716C132.648 4.8716 131.532 5.3357 130.652 6.26391V14.6588H129.577V7.30815C129.577 5.68378 128.703 4.8716 126.956 4.8716C125.686 4.8716 124.564 5.3357 123.588 6.26391V14.6588H122.513Z" fill="#8DB291"/>
    <path d="M140.285 11.6182C140.285 9.48194 141.705 8.41381 144.544 8.41381C145.547 8.41381 146.619 8.48207 147.759 8.61857V7.29791C147.759 5.65307 146.725 4.83065 144.657 4.83065C143.551 4.83065 142.418 5.00127 141.258 5.34253V4.42114C142.418 4.07989 143.551 3.90926 144.657 3.90926C147.441 3.90926 148.834 5.02175 148.834 7.24673V14.6588H148.178L147.933 13.594C146.588 14.3039 145.285 14.6588 144.022 14.6588C141.531 14.6588 140.285 13.6452 140.285 11.6182ZM144.544 9.3352C142.421 9.3352 141.36 10.086 141.36 11.5875C141.36 13.0207 142.247 13.7374 144.022 13.7374C145.332 13.7374 146.578 13.3893 147.759 12.6931V9.53995C146.619 9.40345 145.547 9.3352 144.544 9.3352ZM145.547 0.0189667H147.175L144.728 2.46576H143.868L145.547 0.0189667Z" fill="#8DB291"/>
    <path d="M152.12 14.6588V3.90926H152.888L153.021 5.2811C154.393 4.36654 155.737 3.90926 157.054 3.90926C159.668 3.90926 160.975 5.03881 160.975 7.29791V14.6588H159.901V7.2672C159.901 5.67013 158.935 4.8716 157.003 4.8716C155.713 4.8716 154.444 5.32547 153.195 6.2332V14.6588H152.12Z" fill="#8DB291"/>
    <path d="M162.982 3.90926H164.221L168.213 13.6145L172.145 3.90926H173.332L168.664 14.9761C167.872 16.9281 166.685 18.1464 165.101 18.631L164.784 17.771C166.026 17.3205 166.975 16.3377 167.63 14.8226L162.982 3.90926Z" fill="#8DB291"/>
    <path d="M39.4167 39.9564C39.4848 39.9564 39.5416 40.0019 39.587 40.0927C39.6552 40.1609 39.6665 40.229 39.6211 40.2972C38.0311 41.5691 36.2822 42.2051 34.3742 42.2051C32.6934 42.2051 31.2624 41.8303 30.0813 41.0808C28.9001 40.3085 28.0143 39.3091 27.4237 38.0826C26.8332 36.856 26.5379 35.5386 26.5379 34.1303C26.5379 32.5631 26.9127 31.1208 27.6622 29.8034C28.4345 28.4632 29.4566 27.407 30.7286 26.6348C32.0006 25.8625 33.3861 25.4764 34.8853 25.4764C36.4525 25.4764 37.6336 25.9079 38.4286 26.7711C39.2463 27.6342 39.6552 28.7812 39.6552 30.2122C39.6552 30.4621 39.6211 30.6438 39.5529 30.7573C39.5075 30.8482 39.4053 30.8936 39.2463 30.8936L29.3658 30.9277C29.2749 31.7 29.2295 32.3359 29.2295 32.8357C29.2295 35.2433 29.8087 37.2081 30.9671 38.7299C32.1255 40.2517 33.7155 41.0126 35.737 41.0126C36.373 41.0126 37.009 40.9331 37.645 40.7741C38.3037 40.5924 38.8829 40.3199 39.3826 39.9564H39.4167ZM33.795 26.2259C32.7274 26.2259 31.8189 26.5893 31.0693 27.3162C30.3198 28.043 29.7973 29.0652 29.5021 30.3826L36.8614 30.2463C36.8841 28.9516 36.6342 27.9635 36.1118 27.2821C35.5894 26.578 34.8171 26.2259 33.795 26.2259Z" fill="#C0D4C2"/>
    <path d="M46.5148 38.9003C46.5148 39.5362 46.5716 40.0132 46.6852 40.3312C46.8215 40.6492 47.06 40.8764 47.4007 41.0126C47.7414 41.1262 48.2638 41.183 48.9679 41.183H50.6033C51.8299 41.183 52.852 40.7969 53.6697 40.0246C54.5101 39.2296 55.1007 38.1621 55.4414 36.8219C55.4414 36.7765 55.4868 36.7538 55.5777 36.7538C55.6458 36.7538 55.7026 36.7652 55.748 36.7879C55.8162 36.8106 55.8502 36.8446 55.8502 36.8901C55.6912 37.9803 55.6117 39.4454 55.6117 41.2852C55.6117 41.4669 55.5663 41.6032 55.4755 41.6941C55.4073 41.7622 55.271 41.7963 55.0666 41.7963H41.6427C41.5973 41.7963 41.5746 41.7281 41.5746 41.5918C41.5746 41.4556 41.5973 41.3874 41.6427 41.3874C42.3468 41.3874 42.8579 41.3306 43.1759 41.2171C43.4939 41.1035 43.7097 40.8877 43.8232 40.5697C43.9368 40.229 43.9936 39.718 43.9936 39.0365V28.6109C43.9936 27.9295 43.9368 27.4298 43.8232 27.1118C43.7097 26.7938 43.4825 26.578 43.1418 26.4644C42.8238 26.3281 42.3241 26.26 41.6427 26.26C41.5973 26.26 41.5746 26.1918 41.5746 26.0556C41.5746 25.9193 41.5973 25.8511 41.6427 25.8511L43.21 25.8852C44.1185 25.9306 44.8226 25.9534 45.3224 25.9534C45.8675 25.9534 46.5943 25.9306 47.5029 25.8852L49.002 25.8511C49.0474 25.8511 49.0701 25.9193 49.0701 26.0556C49.0701 26.1918 49.0474 26.26 49.002 26.26C48.2752 26.26 47.7414 26.3281 47.4007 26.4644C47.06 26.578 46.8215 26.8051 46.6852 27.1458C46.5716 27.4638 46.5148 27.9635 46.5148 28.6449V38.9003Z" fill="#C0D4C2"/>
    <path d="M76.5259 41.3874C76.5713 41.3874 76.594 41.4556 76.594 41.5918C76.594 41.7281 76.5713 41.7963 76.5259 41.7963C75.8445 41.7963 75.3107 41.7849 74.9245 41.7622L72.8462 41.7281L70.6657 41.7622C70.3023 41.7849 69.7912 41.7963 69.1325 41.7963C69.0644 41.7963 69.0303 41.7281 69.0303 41.5918C69.0303 41.4556 69.0644 41.3874 69.1325 41.3874C69.8594 41.3874 70.3818 41.3306 70.6998 41.2171C71.0405 41.1035 71.2676 40.8877 71.3812 40.5697C71.4948 40.229 71.5515 39.718 71.5515 39.0365V34.0963H62.4546V39.0365C62.4546 39.718 62.5114 40.229 62.625 40.5697C62.7386 40.8877 62.9543 41.1035 63.2723 41.2171C63.613 41.3306 64.1468 41.3874 64.8737 41.3874C64.9418 41.3874 64.9759 41.4556 64.9759 41.5918C64.9759 41.7281 64.9418 41.7963 64.8737 41.7963C64.215 41.7963 63.7039 41.7849 63.3405 41.7622L61.194 41.7281L59.0816 41.7622C58.6955 41.7849 58.1617 41.7963 57.4803 41.7963C57.4349 41.7963 57.4122 41.7281 57.4122 41.5918C57.4122 41.4556 57.4349 41.3874 57.4803 41.3874C58.2071 41.3874 58.7409 41.3306 59.0816 41.2171C59.4223 41.1035 59.6495 40.8877 59.763 40.5697C59.8993 40.229 59.9675 39.718 59.9675 39.0365V28.6109C59.9675 27.9295 59.8993 27.4298 59.763 27.1118C59.6495 26.7938 59.4223 26.578 59.0816 26.4644C58.7636 26.3281 58.2526 26.26 57.5484 26.26C57.4803 26.26 57.4462 26.1918 57.4462 26.0556C57.4462 25.9193 57.4803 25.8511 57.5484 25.8511L59.0816 25.8852C59.9448 25.9306 60.6489 25.9534 61.194 25.9534C61.7392 25.9534 62.466 25.9306 63.3745 25.8852L64.8737 25.8511C64.9418 25.8511 64.9759 25.9193 64.9759 26.0556C64.9759 26.1918 64.9418 26.26 64.8737 26.26C64.1695 26.26 63.6471 26.3281 63.3064 26.4644C62.9884 26.6007 62.7613 26.8392 62.625 27.1799C62.5114 27.4979 62.4546 27.9976 62.4546 28.679V33.4149H71.5515V28.679C71.5515 27.9976 71.4948 27.4979 71.3812 27.1799C71.2676 26.8392 71.0405 26.6007 70.6998 26.4644C70.3591 26.3281 69.8366 26.26 69.1325 26.26C69.0644 26.26 69.0303 26.1918 69.0303 26.0556C69.0303 25.9193 69.0644 25.8511 69.1325 25.8511L70.6657 25.8852C71.5288 25.9306 72.2557 25.9534 72.8462 25.9534C73.3686 25.9534 74.0614 25.9306 74.9245 25.8852L76.5259 25.8511C76.5713 25.8511 76.594 25.9193 76.594 26.0556C76.594 26.1918 76.5713 26.26 76.5259 26.26C75.799 26.26 75.2653 26.3281 74.9245 26.4644C74.5838 26.578 74.3453 26.7938 74.2091 27.1118C74.0955 27.4298 74.0387 27.9295 74.0387 28.6109V39.0365C74.0387 39.718 74.0955 40.229 74.2091 40.5697C74.3453 40.8877 74.5838 41.1035 74.9245 41.2171C75.2653 41.3306 75.799 41.3874 76.5259 41.3874Z" fill="#C0D4C2"/>
    <path d="M81.6024 20.2295L81.5684 20.1613C81.5684 20.1159 81.6024 20.0705 81.6706 20.025C81.7387 19.9796 81.7841 19.9683 81.8068 19.991L85.5206 21.7626L89.2002 19.991L89.2683 19.9569C89.3138 19.9569 89.3478 20.0023 89.3706 20.0932C89.416 20.1613 89.416 20.2067 89.3706 20.2295L85.8953 23.7388C85.8045 23.8296 85.6796 23.875 85.5206 23.875C85.3389 23.875 85.2026 23.8296 85.1117 23.7388L81.6024 20.2295ZM96.3891 41.3874C96.4573 41.3874 96.4914 41.4556 96.4914 41.5918C96.4914 41.7281 96.4573 41.7963 96.3891 41.7963H91.8918C91.5284 41.7963 90.847 41.1149 89.8476 39.752C88.8481 38.3892 87.667 36.5153 86.3042 34.1303C85.8272 34.1985 85.3502 34.2326 84.8732 34.2326C84.3962 34.2326 84.0328 34.2212 83.783 34.1985V39.0365C83.783 39.7407 83.8397 40.2517 83.9533 40.5697C84.0669 40.8877 84.2827 41.1035 84.6007 41.2171C84.9186 41.3306 85.4411 41.3874 86.1679 41.3874C86.2361 41.3874 86.2701 41.4556 86.2701 41.5918C86.2701 41.7281 86.2361 41.7963 86.1679 41.7963C85.5319 41.7963 85.0322 41.7849 84.6688 41.7622L82.4883 41.7281L80.3759 41.7622C79.9897 41.7849 79.456 41.7963 78.7745 41.7963C78.7291 41.7963 78.7064 41.7281 78.7064 41.5918C78.7064 41.4556 78.7291 41.3874 78.7745 41.3874C79.5014 41.3874 80.0238 41.3306 80.3418 41.2171C80.6825 41.1035 80.9096 40.8877 81.0232 40.5697C81.1595 40.229 81.2276 39.718 81.2276 39.0365V28.6109C81.2276 27.9295 81.1595 27.4298 81.0232 27.1118C80.9096 26.7938 80.6825 26.578 80.3418 26.4644C80.0238 26.3281 79.5241 26.26 78.8427 26.26C78.7746 26.26 78.7405 26.1918 78.7405 26.0556C78.7405 25.9193 78.7746 25.8511 78.8427 25.8511L80.4099 25.8852C81.2731 25.9306 81.9659 25.9534 82.4883 25.9534C82.9198 25.9534 83.306 25.942 83.6467 25.9193C84.0101 25.8966 84.3167 25.8739 84.5666 25.8511C85.2707 25.783 85.9408 25.7489 86.5768 25.7489C88.144 25.7489 89.3365 26.0329 90.1542 26.6007C90.9946 27.1685 91.4148 27.9862 91.4148 29.0538C91.4148 29.9623 91.1423 30.8028 90.5971 31.575C90.0747 32.3246 89.3478 32.9379 88.4166 33.4149C89.6658 35.4818 90.722 37.0831 91.5852 38.2188C92.471 39.3545 93.2887 40.1722 94.0383 40.6719C94.7878 41.1489 95.5714 41.3874 96.3891 41.3874ZM83.783 33.5511C84.2827 33.5966 84.7256 33.6193 85.1117 33.6193C86.4745 33.6193 87.4172 33.3126 87.9396 32.6994C88.4847 32.0861 88.7573 31.1775 88.7573 29.9737C88.7573 27.5206 87.7465 26.2941 85.725 26.2941C84.93 26.2941 84.4076 26.4644 84.1577 26.8051C83.9079 27.1458 83.783 27.7705 83.783 28.679V33.5511Z" fill="#C0D4C2"/>
    <path d="M102.32 39.0365C102.32 39.718 102.377 40.229 102.491 40.5697C102.604 40.8877 102.82 41.1035 103.138 41.2171C103.479 41.3306 104.013 41.3874 104.739 41.3874C104.808 41.3874 104.842 41.4556 104.842 41.5918C104.842 41.7281 104.808 41.7963 104.739 41.7963C104.081 41.7963 103.57 41.7849 103.206 41.7622L101.026 41.7281L98.9133 41.7622C98.5272 41.7849 97.9934 41.7963 97.312 41.7963C97.2666 41.7963 97.2438 41.7281 97.2438 41.5918C97.2438 41.4556 97.2666 41.3874 97.312 41.3874C98.0388 41.3874 98.5726 41.3306 98.9133 41.2171C99.254 41.1035 99.4812 40.8877 99.5947 40.5697C99.731 40.229 99.7992 39.718 99.7992 39.0365V28.6109C99.7992 27.9295 99.731 27.4298 99.5947 27.1118C99.4812 26.7938 99.254 26.578 98.9133 26.4644C98.5726 26.3281 98.0388 26.26 97.312 26.26C97.2666 26.26 97.2438 26.1918 97.2438 26.0556C97.2438 25.9193 97.2666 25.8511 97.312 25.8511L98.9133 25.8852C99.7764 25.9306 100.481 25.9534 101.026 25.9534C101.594 25.9534 102.332 25.9306 103.24 25.8852L104.739 25.8511C104.808 25.8511 104.842 25.9193 104.842 26.0556C104.842 26.1918 104.808 26.26 104.739 26.26C104.035 26.26 103.513 26.3281 103.172 26.4644C102.854 26.6007 102.627 26.8392 102.491 27.1799C102.377 27.4979 102.32 27.9976 102.32 28.679V39.0365Z" fill="#C0D4C2"/>
    <path d="M136.081 41.3874C136.127 41.3874 136.149 41.4556 136.149 41.5918C136.149 41.7281 136.127 41.7963 136.081 41.7963C135.468 41.7963 134.979 41.7849 134.616 41.7622L132.367 41.7281L130.289 41.7622C129.903 41.7849 129.392 41.7963 128.756 41.7963C128.71 41.7963 128.688 41.7281 128.688 41.5918C128.688 41.4556 128.71 41.3874 128.756 41.3874C129.46 41.3874 129.971 41.3306 130.289 41.2171C130.63 41.1035 130.857 40.8877 130.97 40.5697C131.107 40.229 131.175 39.718 131.175 39.0365V31.7454C131.175 29.951 130.891 28.6222 130.323 27.7591C129.778 26.8733 128.915 26.4303 127.734 26.4303C126.825 26.4303 125.951 26.6802 125.11 27.1799C124.27 27.6569 123.498 28.3497 122.793 29.2582C122.884 29.6444 122.93 30.1327 122.93 30.7233V39.0365C122.93 39.7407 122.987 40.2517 123.1 40.5697C123.214 40.8877 123.429 41.1035 123.747 41.2171C124.088 41.3306 124.622 41.3874 125.349 41.3874C125.394 41.3874 125.417 41.4556 125.417 41.5918C125.417 41.7281 125.394 41.7963 125.349 41.7963C124.713 41.7963 124.213 41.7849 123.85 41.7622L121.669 41.7281L119.523 41.7622C119.159 41.7849 118.671 41.7963 118.058 41.7963C117.989 41.7963 117.955 41.7281 117.955 41.5918C117.955 41.4556 117.989 41.3874 118.058 41.3874C118.762 41.3874 119.273 41.3306 119.591 41.2171C119.932 41.0808 120.159 40.8536 120.272 40.5357C120.409 40.2177 120.477 39.718 120.477 39.0365V31.7454C120.477 28.202 119.318 26.4303 117.001 26.4303C115.207 26.4303 113.594 27.3389 112.163 29.156V39.0365C112.163 39.718 112.22 40.229 112.334 40.5697C112.447 40.8877 112.663 41.1035 112.981 41.2171C113.322 41.3306 113.856 41.3874 114.582 41.3874C114.651 41.3874 114.685 41.4556 114.685 41.5918C114.685 41.7281 114.651 41.7963 114.582 41.7963C113.946 41.7963 113.447 41.7849 113.083 41.7622L110.903 41.7281L108.756 41.7622C108.393 41.7849 107.905 41.7963 107.291 41.7963C107.223 41.7963 107.189 41.7281 107.189 41.5918C107.189 41.4556 107.223 41.3874 107.291 41.3874C107.995 41.3874 108.506 41.3306 108.824 41.2171C109.165 41.1035 109.392 40.8877 109.506 40.5697C109.619 40.229 109.676 39.718 109.676 39.0365V28.6109C109.676 27.9295 109.608 27.4298 109.472 27.1118C109.358 26.7938 109.131 26.578 108.79 26.4644C108.45 26.3281 107.916 26.26 107.189 26.26C107.144 26.26 107.121 26.1918 107.121 26.0556C107.121 25.9193 107.144 25.8511 107.189 25.8511L109.983 25.8852L111.516 25.8511C111.811 25.8511 111.993 25.8966 112.061 25.9874C112.129 26.0556 112.163 26.2259 112.163 26.4985V28.4065C113.072 27.407 114.003 26.6575 114.957 26.1578C115.934 25.6581 116.967 25.4082 118.058 25.4082C119.261 25.4082 120.25 25.6921 121.022 26.26C121.817 26.8051 122.362 27.6115 122.657 28.679C123.634 27.5433 124.622 26.7143 125.621 26.1918C126.621 25.6694 127.666 25.4082 128.756 25.4082C130.3 25.4082 131.493 25.8625 132.333 26.7711C133.196 27.6796 133.628 28.997 133.628 30.7233V39.0365C133.628 39.718 133.685 40.229 133.798 40.5697C133.912 40.8877 134.139 41.1035 134.48 41.2171C134.82 41.3306 135.354 41.3874 136.081 41.3874Z" fill="#C0D4C2"/>
    <path d="M146.045 42.2051C144.455 42.2051 143.035 41.8303 141.786 41.0808C140.537 40.3312 139.56 39.3205 138.856 38.0485C138.174 36.7765 137.834 35.391 137.834 33.8918C137.834 32.1429 138.288 30.6324 139.196 29.3604C140.105 28.0657 141.263 27.089 142.672 26.4303C144.103 25.7716 145.556 25.4423 147.033 25.4423C148.623 25.4423 150.031 25.8398 151.257 26.6348C152.484 27.407 153.427 28.4178 154.085 29.6671C154.744 30.9163 155.073 32.2224 155.073 33.5852C155.073 35.107 154.665 36.538 153.847 37.8781C153.029 39.1955 151.928 40.2517 150.542 41.0467C149.179 41.819 147.68 42.2051 146.045 42.2051ZM146.896 41.4896C148.509 41.4896 149.792 40.865 150.746 39.6157C151.723 38.3665 152.211 36.6289 152.211 34.4029C152.211 32.9038 151.962 31.5296 151.462 30.2803C150.962 29.0311 150.235 28.043 149.281 27.3162C148.327 26.5666 147.192 26.1918 145.874 26.1918C144.216 26.1918 142.933 26.7824 142.024 27.9635C141.116 29.1447 140.661 30.8141 140.661 32.9719C140.661 34.5619 140.923 36.0042 141.445 37.2989C141.968 38.5936 142.694 39.6157 143.626 40.3653C144.58 41.1149 145.67 41.4896 146.896 41.4896Z" fill="#C0D4C2"/>
    <path d="M173.786 25.8511C173.831 25.8511 173.854 25.9193 173.854 26.0556C173.854 26.1918 173.831 26.26 173.786 26.26C173.127 26.26 172.548 26.4758 172.048 26.9073C171.571 27.3389 171.151 28.0203 170.788 28.9516L165.745 41.7622C165.722 41.8531 165.597 41.8985 165.37 41.8985C165.143 41.8985 165.018 41.8531 164.995 41.7622L158.761 28.679C158.306 27.725 157.909 27.089 157.568 26.7711C157.227 26.4303 156.762 26.26 156.171 26.26C156.103 26.26 156.069 26.1918 156.069 26.0556C156.069 25.9193 156.103 25.8511 156.171 25.8511L157.534 25.8852C158.261 25.9306 158.874 25.9534 159.374 25.9534C159.942 25.9534 160.634 25.9306 161.452 25.8852L162.917 25.8511C162.963 25.8511 162.985 25.9193 162.985 26.0556C162.985 26.1918 162.963 26.26 162.917 26.26C161.736 26.26 161.145 26.6121 161.145 27.3162C161.145 27.6342 161.236 27.9749 161.418 28.3383L166.29 38.5595L170.004 28.7472C170.163 28.3383 170.242 27.9635 170.242 27.6228C170.242 26.7143 169.504 26.26 168.028 26.26C167.96 26.26 167.926 26.1918 167.926 26.0556C167.926 25.9193 167.96 25.8511 168.028 25.8511L169.254 25.8852C169.936 25.9306 170.572 25.9534 171.162 25.9534C171.571 25.9534 172.025 25.9306 172.525 25.8852L173.786 25.8511Z" fill="#C0D4C2"/>
</svg>
