<svg width="132" height="33" viewBox="0 0 132 33" fill="none" xmlns="http://www.w3.org/2000/svg">
    <path d="M6.08 28.7719C6.08 29.6252 6.18667 30.2519 6.4 30.6519C6.64 31.0252 7.08 31.2919 7.72 31.4519C8.38667 31.6119 9.42667 31.6919 10.84 31.6919C10.92 31.6919 10.96 31.7719 10.96 31.9319C10.96 32.0919 10.92 32.1719 10.84 32.1719C9.74667 32.1719 8.89333 32.1585 8.28 32.1319L4.8 32.0919L2.12 32.1319C1.61333 32.1585 0.933333 32.1719 0.08 32.1719C0.0266667 32.1719 0 32.0919 0 31.9319C0 31.7719 0.0266667 31.6919 0.08 31.6919C1.09333 31.6919 1.82667 31.6252 2.28 31.4919C2.76 31.3585 3.08 31.1052 3.24 30.7319C3.4 30.3319 3.48 29.7319 3.48 28.9319V10.4119C3.48 9.61187 3.4 9.02521 3.24 8.65187C3.08 8.27854 2.76 8.02521 2.28 7.89187C1.82667 7.73187 1.09333 7.65187 0.08 7.65187C0.0266667 7.65187 0 7.57187 0 7.41187C0 7.25187 0.0266667 7.17188 0.08 7.17188L2.08 7.21187C3.2 7.26521 4.09333 7.29187 4.76 7.29187C5.42667 7.29187 6.17333 7.25187 7 7.17188C7.32 7.17188 7.82667 7.15854 8.52 7.13187C9.21333 7.07854 9.81333 7.05187 10.32 7.05187C12.7733 7.05187 14.7333 7.59854 16.2 8.69187C17.6933 9.78521 18.44 11.4519 18.44 13.6919C18.44 15.4519 18 16.9319 17.12 18.1319C16.2667 19.3319 15.16 20.2252 13.8 20.8119C12.44 21.3985 11.04 21.6919 9.6 21.6919C8.82667 21.6919 8.18667 21.6252 7.68 21.4919C7.6 21.4919 7.56 21.4252 7.56 21.2919C7.56 21.2119 7.57333 21.1319 7.6 21.0519C7.65333 20.9719 7.70667 20.9452 7.76 20.9719C8.18667 21.0785 8.66667 21.1319 9.2 21.1319C10.96 21.1319 12.44 20.5585 13.64 19.4119C14.8667 18.2652 15.48 16.6119 15.48 14.4519C15.48 12.3452 14.9067 10.6919 13.76 9.49187C12.6133 8.26521 11.1467 7.65187 9.36 7.65187C8.4 7.65187 7.70667 7.70521 7.28 7.81187C6.85333 7.91854 6.54667 8.17187 6.36 8.57187C6.17333 8.94521 6.08 9.58521 6.08 10.4919V28.7719Z" fill="#5F8B64"/>
    <path d="M53.5484 11.1719H52.6734L57.7281 0H58.7047L63.7828 11.1719H62.8063L61.15 7.42188H56.1422L56.3844 6.71875H60.8453L58.1656 0.640625L53.5484 11.1719Z" fill="#5F8B64"/>
    <path d="M66.1266 9.96875C66.9547 10.25 67.7177 10.3906 68.4156 10.3906C70.5354 10.3906 71.5953 9.21094 71.5953 6.85156C71.5953 4.7526 70.5406 3.70312 68.4313 3.70312C67.7021 3.70312 66.9339 3.76562 66.1266 3.89062V9.96875ZM65.3063 3.30469C66.2385 3.08073 67.2854 2.96875 68.4469 2.96875C71.0771 2.96875 72.3922 4.26823 72.3922 6.86719C72.3922 9.73698 71.0693 11.1719 68.4234 11.1719C67.7672 11.1719 67.0016 11.0417 66.1266 10.7812V14.1406H65.3063V3.30469Z" fill="#5F8B64"/>
    <path d="M74.0406 8.85156C74.0406 7.22135 75.124 6.40625 77.2906 6.40625C78.0563 6.40625 78.874 6.45833 79.7438 6.5625V5.55469C79.7438 4.29948 78.9547 3.67188 77.3766 3.67188C76.5328 3.67188 75.6682 3.80208 74.7828 4.0625V3.35938C75.6682 3.09896 76.5328 2.96875 77.3766 2.96875C79.5016 2.96875 80.5641 3.81771 80.5641 5.51562V11.1719H80.0641L79.8766 10.3594C78.8505 10.901 77.8557 11.1719 76.8922 11.1719C74.9911 11.1719 74.0406 10.3984 74.0406 8.85156ZM77.2906 7.10938C75.6708 7.10938 74.8609 7.68229 74.8609 8.82812C74.8609 9.92188 75.538 10.4688 76.8922 10.4688C77.8922 10.4688 78.8427 10.2031 79.7438 9.67188V7.26562C78.874 7.16146 78.0563 7.10938 77.2906 7.10938Z" fill="#5F8B64"/>
    <path d="M83.0719 11.1719V2.96875H83.6578L83.7594 4.32812C84.5823 3.42188 85.499 2.96875 86.5094 2.96875V3.625C85.5302 3.625 84.6578 4.10156 83.8922 5.05469V11.1719H83.0719Z" fill="#5F8B64"/>
    <path d="M88.0094 1.64062H88.5875L88.7359 2.96875H91.1969V3.67188H88.8063V8.85156C88.8063 9.92969 89.2021 10.4688 89.9938 10.4688H91.1969V11.1719H90.0094C88.676 11.1719 88.0094 10.4349 88.0094 8.96094V1.64062Z" fill="#5F8B64"/>
    <path d="M92.9469 11.1719V2.96875H93.5328L93.6188 4C94.4573 3.3125 95.3661 2.96875 96.3453 2.96875C97.637 2.96875 98.4729 3.34375 98.8531 4.09375C99.7958 3.34375 100.752 2.96875 101.72 2.96875C103.554 2.96875 104.47 3.8776 104.47 5.69531V11.1719H103.65V5.69531C103.65 4.36719 103.004 3.70312 101.713 3.70312C100.681 3.70312 99.8297 4.05729 99.1578 4.76562V11.1719H98.3375V5.5625C98.3375 4.32292 97.6708 3.70312 96.3375 3.70312C95.3688 3.70312 94.512 4.05729 93.7672 4.76562V11.1719H92.9469Z" fill="#5F8B64"/>
    <path d="M106.509 8.85156C106.509 7.22135 107.593 6.40625 109.759 6.40625C110.525 6.40625 111.343 6.45833 112.213 6.5625V5.55469C112.213 4.29948 111.423 3.67188 109.845 3.67188C109.002 3.67188 108.137 3.80208 107.252 4.0625V3.35938C108.137 3.09896 109.002 2.96875 109.845 2.96875C111.97 2.96875 113.033 3.81771 113.033 5.51562V11.1719H112.533L112.345 10.3594C111.319 10.901 110.324 11.1719 109.361 11.1719C107.46 11.1719 106.509 10.3984 106.509 8.85156ZM109.759 7.10938C108.14 7.10938 107.33 7.68229 107.33 8.82812C107.33 9.92188 108.007 10.4688 109.361 10.4688C110.361 10.4688 111.311 10.2031 112.213 9.67188V7.26562C111.343 7.16146 110.525 7.10938 109.759 7.10938ZM110.525 0H111.767L109.9 1.86719H109.244L110.525 0Z" fill="#5F8B64"/>
    <path d="M115.541 11.1719V2.96875H116.127L116.228 4.01562C117.275 3.31771 118.301 2.96875 119.306 2.96875C121.301 2.96875 122.298 3.83073 122.298 5.55469V11.1719H121.478V5.53125C121.478 4.3125 120.741 3.70312 119.267 3.70312C118.283 3.70312 117.314 4.04948 116.361 4.74219V11.1719H115.541Z" fill="#5F8B64"/>
    <path d="M123.83 2.96875H124.775L127.822 10.375L130.822 2.96875H131.728L128.166 11.4141C127.561 12.9036 126.655 13.8333 125.447 14.2031L125.205 13.5469C126.153 13.2031 126.877 12.4531 127.377 11.2969L123.83 2.96875Z" fill="#5F8B64"/>
    <path d="M29.112 30.7679C29.164 30.7679 29.2073 30.8025 29.242 30.8719C29.294 30.9239 29.3027 30.9759 29.268 31.0279C28.0547 31.9985 26.72 32.4839 25.264 32.4839C23.9813 32.4839 22.8893 32.1979 21.988 31.6259C21.0867 31.0365 20.4107 30.2739 19.96 29.3379C19.5093 28.4019 19.284 27.3965 19.284 26.3219C19.284 25.1259 19.57 24.0252 20.142 23.0199C20.7313 21.9972 21.5113 21.1912 22.482 20.6019C23.4527 20.0125 24.51 19.7179 25.654 19.7179C26.85 19.7179 27.7513 20.0472 28.358 20.7059C28.982 21.3645 29.294 22.2399 29.294 23.3319C29.294 23.5225 29.268 23.6612 29.216 23.7479C29.1813 23.8172 29.1033 23.8519 28.982 23.8519L21.442 23.8779C21.3727 24.4672 21.338 24.9525 21.338 25.3339C21.338 27.1712 21.78 28.6705 22.664 29.8319C23.548 30.9932 24.7613 31.5739 26.304 31.5739C26.7893 31.5739 27.2747 31.5132 27.76 31.3919C28.2627 31.2532 28.7047 31.0452 29.086 30.7679H29.112ZM24.822 20.2899C24.0073 20.2899 23.314 20.5672 22.742 21.1219C22.17 21.6765 21.7713 22.4565 21.546 23.4619L27.162 23.3579C27.1793 22.3699 26.9887 21.6159 26.59 21.0959C26.1913 20.5585 25.602 20.2899 24.822 20.2899Z" fill="#5F8B64"/>
    <path d="M34.5287 29.9619C34.5287 30.4472 34.5721 30.8112 34.6587 31.0539C34.7627 31.2965 34.9447 31.4699 35.2047 31.5739C35.4647 31.6605 35.8634 31.7039 36.4007 31.7039H37.6487C38.5847 31.7039 39.3647 31.4092 39.9887 30.8199C40.6301 30.2132 41.0807 29.3985 41.3407 28.3759C41.3407 28.3412 41.3754 28.3239 41.4447 28.3239C41.4967 28.3239 41.5401 28.3325 41.5747 28.3499C41.6267 28.3672 41.6527 28.3932 41.6527 28.4279C41.5314 29.2599 41.4707 30.3779 41.4707 31.7819C41.4707 31.9205 41.4361 32.0245 41.3667 32.0939C41.3147 32.1459 41.2107 32.1719 41.0547 32.1719H30.8107C30.7761 32.1719 30.7587 32.1199 30.7587 32.0159C30.7587 31.9119 30.7761 31.8599 30.8107 31.8599C31.3481 31.8599 31.7381 31.8165 31.9807 31.7299C32.2234 31.6432 32.3881 31.4785 32.4747 31.2359C32.5614 30.9759 32.6047 30.5859 32.6047 30.0659V22.1099C32.6047 21.5899 32.5614 21.2085 32.4747 20.9659C32.3881 20.7232 32.2147 20.5585 31.9547 20.4719C31.7121 20.3679 31.3307 20.3159 30.8107 20.3159C30.7761 20.3159 30.7587 20.2639 30.7587 20.1599C30.7587 20.0559 30.7761 20.0039 30.8107 20.0039L32.0067 20.0299C32.7001 20.0645 33.2374 20.0819 33.6187 20.0819C34.0347 20.0819 34.5894 20.0645 35.2827 20.0299L36.4267 20.0039C36.4614 20.0039 36.4787 20.0559 36.4787 20.1599C36.4787 20.2639 36.4614 20.3159 36.4267 20.3159C35.8721 20.3159 35.4647 20.3679 35.2047 20.4719C34.9447 20.5585 34.7627 20.7319 34.6587 20.9919C34.5721 21.2345 34.5287 21.6159 34.5287 22.1359V29.9619Z" fill="#5F8B64"/>
    <path d="M57.4307 31.8599C57.4653 31.8599 57.4827 31.9119 57.4827 32.0159C57.4827 32.1199 57.4653 32.1719 57.4307 32.1719C56.9107 32.1719 56.5033 32.1632 56.2087 32.1459L54.6227 32.1199L52.9587 32.1459C52.6813 32.1632 52.2913 32.1719 51.7887 32.1719C51.7367 32.1719 51.7107 32.1199 51.7107 32.0159C51.7107 31.9119 51.7367 31.8599 51.7887 31.8599C52.3433 31.8599 52.742 31.8165 52.9847 31.7299C53.2447 31.6432 53.418 31.4785 53.5047 31.2359C53.5913 30.9759 53.6347 30.5859 53.6347 30.0659V26.2959H46.6927V30.0659C46.6927 30.5859 46.736 30.9759 46.8227 31.2359C46.9093 31.4785 47.074 31.6432 47.3167 31.7299C47.5767 31.8165 47.984 31.8599 48.5387 31.8599C48.5907 31.8599 48.6167 31.9119 48.6167 32.0159C48.6167 32.1199 48.5907 32.1719 48.5387 32.1719C48.036 32.1719 47.646 32.1632 47.3687 32.1459L45.7307 32.1199L44.1187 32.1459C43.824 32.1632 43.4167 32.1719 42.8967 32.1719C42.862 32.1719 42.8447 32.1199 42.8447 32.0159C42.8447 31.9119 42.862 31.8599 42.8967 31.8599C43.4513 31.8599 43.8587 31.8165 44.1187 31.7299C44.3787 31.6432 44.552 31.4785 44.6387 31.2359C44.7427 30.9759 44.7947 30.5859 44.7947 30.0659V22.1099C44.7947 21.5899 44.7427 21.2085 44.6387 20.9659C44.552 20.7232 44.3787 20.5585 44.1187 20.4719C43.876 20.3679 43.486 20.3159 42.9487 20.3159C42.8967 20.3159 42.8707 20.2639 42.8707 20.1599C42.8707 20.0559 42.8967 20.0039 42.9487 20.0039L44.1187 20.0299C44.7773 20.0645 45.3147 20.0819 45.7307 20.0819C46.1467 20.0819 46.7013 20.0645 47.3947 20.0299L48.5387 20.0039C48.5907 20.0039 48.6167 20.0559 48.6167 20.1599C48.6167 20.2639 48.5907 20.3159 48.5387 20.3159C48.0013 20.3159 47.6027 20.3679 47.3427 20.4719C47.1 20.5759 46.9267 20.7579 46.8227 21.0179C46.736 21.2605 46.6927 21.6419 46.6927 22.1619V25.7759H53.6347V22.1619C53.6347 21.6419 53.5913 21.2605 53.5047 21.0179C53.418 20.7579 53.2447 20.5759 52.9847 20.4719C52.7247 20.3679 52.326 20.3159 51.7887 20.3159C51.7367 20.3159 51.7107 20.2639 51.7107 20.1599C51.7107 20.0559 51.7367 20.0039 51.7887 20.0039L52.9587 20.0299C53.6173 20.0645 54.172 20.0819 54.6227 20.0819C55.0213 20.0819 55.55 20.0645 56.2087 20.0299L57.4307 20.0039C57.4653 20.0039 57.4827 20.0559 57.4827 20.1599C57.4827 20.2639 57.4653 20.3159 57.4307 20.3159C56.876 20.3159 56.4687 20.3679 56.2087 20.4719C55.9487 20.5585 55.7667 20.7232 55.6627 20.9659C55.576 21.2085 55.5327 21.5899 55.5327 22.1099V30.0659C55.5327 30.5859 55.576 30.9759 55.6627 31.2359C55.7667 31.4785 55.9487 31.6432 56.2087 31.7299C56.4687 31.8165 56.876 31.8599 57.4307 31.8599Z" fill="#5F8B64"/>
    <path d="M61.3047 15.7139L61.2787 15.6619C61.2787 15.6272 61.3047 15.5925 61.3567 15.5579C61.4087 15.5232 61.4433 15.5145 61.4607 15.5319L64.2947 16.8839L67.1027 15.5319L67.1547 15.5059C67.1893 15.5059 67.2153 15.5405 67.2327 15.6099C67.2673 15.6619 67.2673 15.6965 67.2327 15.7139L64.5807 18.3919C64.5113 18.4612 64.416 18.4959 64.2947 18.4959C64.156 18.4959 64.052 18.4612 63.9827 18.3919L61.3047 15.7139ZM72.5887 31.8599C72.6407 31.8599 72.6667 31.9119 72.6667 32.0159C72.6667 32.1199 72.6407 32.1719 72.5887 32.1719H69.1567C68.8793 32.1719 68.3593 31.6519 67.5967 30.6119C66.834 29.5719 65.9327 28.1419 64.8927 26.3219C64.5287 26.3739 64.1647 26.3999 63.8007 26.3999C63.4367 26.3999 63.1593 26.3912 62.9687 26.3739V30.0659C62.9687 30.6032 63.012 30.9932 63.0987 31.2359C63.1853 31.4785 63.35 31.6432 63.5927 31.7299C63.8353 31.8165 64.234 31.8599 64.7887 31.8599C64.8407 31.8599 64.8667 31.9119 64.8667 32.0159C64.8667 32.1199 64.8407 32.1719 64.7887 32.1719C64.3033 32.1719 63.922 32.1632 63.6447 32.1459L61.9807 32.1199L60.3687 32.1459C60.074 32.1632 59.6667 32.1719 59.1467 32.1719C59.112 32.1719 59.0947 32.1199 59.0947 32.0159C59.0947 31.9119 59.112 31.8599 59.1467 31.8599C59.7013 31.8599 60.1 31.8165 60.3427 31.7299C60.6027 31.6432 60.776 31.4785 60.8627 31.2359C60.9667 30.9759 61.0187 30.5859 61.0187 30.0659V22.1099C61.0187 21.5899 60.9667 21.2085 60.8627 20.9659C60.776 20.7232 60.6027 20.5585 60.3427 20.4719C60.1 20.3679 59.7187 20.3159 59.1987 20.3159C59.1467 20.3159 59.1207 20.2639 59.1207 20.1599C59.1207 20.0559 59.1467 20.0039 59.1987 20.0039L60.3947 20.0299C61.0533 20.0645 61.582 20.0819 61.9807 20.0819C62.31 20.0819 62.6047 20.0732 62.8647 20.0559C63.142 20.0385 63.376 20.0212 63.5667 20.0039C64.104 19.9519 64.6153 19.9259 65.1007 19.9259C66.2967 19.9259 67.2067 20.1425 67.8307 20.5759C68.472 21.0092 68.7927 21.6332 68.7927 22.4479C68.7927 23.1412 68.5847 23.7825 68.1687 24.3719C67.77 24.9439 67.2153 25.4119 66.5047 25.7759C67.458 27.3532 68.264 28.5752 68.9227 29.4419C69.5987 30.3085 70.2227 30.9325 70.7947 31.3139C71.3667 31.6779 71.9647 31.8599 72.5887 31.8599ZM62.9687 25.8799C63.35 25.9145 63.688 25.9319 63.9827 25.9319C65.0227 25.9319 65.742 25.6979 66.1407 25.2299C66.5567 24.7619 66.7647 24.0685 66.7647 23.1499C66.7647 21.2779 65.9933 20.3419 64.4507 20.3419C63.844 20.3419 63.4453 20.4719 63.2547 20.7319C63.064 20.9919 62.9687 21.4685 62.9687 22.1619V25.8799Z" fill="#5F8B64"/>
    <path d="M77.1149 30.0659C77.1149 30.5859 77.1582 30.9759 77.2449 31.2359C77.3316 31.4785 77.4962 31.6432 77.7389 31.7299C77.9989 31.8165 78.4062 31.8599 78.9609 31.8599C79.0129 31.8599 79.0389 31.9119 79.0389 32.0159C79.0389 32.1199 79.0129 32.1719 78.9609 32.1719C78.4582 32.1719 78.0682 32.1632 77.7909 32.1459L76.1269 32.1199L74.5149 32.1459C74.2202 32.1632 73.8129 32.1719 73.2929 32.1719C73.2582 32.1719 73.2409 32.1199 73.2409 32.0159C73.2409 31.9119 73.2582 31.8599 73.2929 31.8599C73.8476 31.8599 74.2549 31.8165 74.5149 31.7299C74.7749 31.6432 74.9482 31.4785 75.0349 31.2359C75.1389 30.9759 75.1909 30.5859 75.1909 30.0659V22.1099C75.1909 21.5899 75.1389 21.2085 75.0349 20.9659C74.9482 20.7232 74.7749 20.5585 74.5149 20.4719C74.2549 20.3679 73.8476 20.3159 73.2929 20.3159C73.2582 20.3159 73.2409 20.2639 73.2409 20.1599C73.2409 20.0559 73.2582 20.0039 73.2929 20.0039L74.5149 20.0299C75.1736 20.0645 75.7109 20.0819 76.1269 20.0819C76.5602 20.0819 77.1236 20.0645 77.8169 20.0299L78.9609 20.0039C79.0129 20.0039 79.0389 20.0559 79.0389 20.1599C79.0389 20.2639 79.0129 20.3159 78.9609 20.3159C78.4236 20.3159 78.0249 20.3679 77.7649 20.4719C77.5222 20.5759 77.3489 20.7579 77.2449 21.0179C77.1582 21.2605 77.1149 21.6419 77.1149 22.1619V30.0659Z" fill="#5F8B64"/>
    <path d="M102.878 31.8599C102.913 31.8599 102.93 31.9119 102.93 32.0159C102.93 32.1199 102.913 32.1719 102.878 32.1719C102.41 32.1719 102.038 32.1632 101.76 32.1459L100.044 32.1199L98.4583 32.1459C98.1636 32.1632 97.7736 32.1719 97.2883 32.1719C97.2536 32.1719 97.2363 32.1199 97.2363 32.0159C97.2363 31.9119 97.2536 31.8599 97.2883 31.8599C97.8256 31.8599 98.2156 31.8165 98.4583 31.7299C98.7183 31.6432 98.8916 31.4785 98.9783 31.2359C99.0823 30.9759 99.1343 30.5859 99.1343 30.0659V24.5019C99.1343 23.1325 98.9176 22.1185 98.4843 21.4599C98.0683 20.7839 97.4096 20.4459 96.5083 20.4459C95.8149 20.4459 95.1476 20.6365 94.5063 21.0179C93.8649 21.3819 93.2756 21.9105 92.7383 22.6039C92.8076 22.8985 92.8423 23.2712 92.8423 23.7219V30.0659C92.8423 30.6032 92.8856 30.9932 92.9723 31.2359C93.0589 31.4785 93.2236 31.6432 93.4663 31.7299C93.7263 31.8165 94.1336 31.8599 94.6883 31.8599C94.7229 31.8599 94.7403 31.9119 94.7403 32.0159C94.7403 32.1199 94.7229 32.1719 94.6883 32.1719C94.2029 32.1719 93.8216 32.1632 93.5443 32.1459L91.8803 32.1199L90.2423 32.1459C89.9649 32.1632 89.5923 32.1719 89.1243 32.1719C89.0723 32.1719 89.0463 32.1199 89.0463 32.0159C89.0463 31.9119 89.0723 31.8599 89.1243 31.8599C89.6616 31.8599 90.0516 31.8165 90.2943 31.7299C90.5543 31.6259 90.7276 31.4525 90.8143 31.2099C90.9183 30.9672 90.9703 30.5859 90.9703 30.0659V24.5019C90.9703 21.7979 90.0863 20.4459 88.3183 20.4459C86.9489 20.4459 85.7183 21.1392 84.6263 22.5259V30.0659C84.6263 30.5859 84.6696 30.9759 84.7563 31.2359C84.8429 31.4785 85.0076 31.6432 85.2503 31.7299C85.5103 31.8165 85.9176 31.8599 86.4723 31.8599C86.5243 31.8599 86.5503 31.9119 86.5503 32.0159C86.5503 32.1199 86.5243 32.1719 86.4723 32.1719C85.9869 32.1719 85.6056 32.1632 85.3283 32.1459L83.6643 32.1199L82.0263 32.1459C81.7489 32.1632 81.3763 32.1719 80.9083 32.1719C80.8563 32.1719 80.8303 32.1199 80.8303 32.0159C80.8303 31.9119 80.8563 31.8599 80.9083 31.8599C81.4456 31.8599 81.8356 31.8165 82.0783 31.7299C82.3383 31.6432 82.5116 31.4785 82.5983 31.2359C82.6849 30.9759 82.7283 30.5859 82.7283 30.0659V22.1099C82.7283 21.5899 82.6763 21.2085 82.5723 20.9659C82.4856 20.7232 82.3123 20.5585 82.0523 20.4719C81.7923 20.3679 81.3849 20.3159 80.8303 20.3159C80.7956 20.3159 80.7783 20.2639 80.7783 20.1599C80.7783 20.0559 80.7956 20.0039 80.8303 20.0039L82.9623 20.0299L84.1323 20.0039C84.3576 20.0039 84.4963 20.0385 84.5483 20.1079C84.6003 20.1599 84.6263 20.2899 84.6263 20.4979V21.9539C85.3196 21.1912 86.0303 20.6192 86.7583 20.2379C87.5036 19.8565 88.2923 19.6659 89.1243 19.6659C90.0429 19.6659 90.7969 19.8825 91.3863 20.3159C91.9929 20.7319 92.4089 21.3472 92.6343 22.1619C93.3796 21.2952 94.1336 20.6625 94.8963 20.2639C95.6589 19.8652 96.4563 19.6659 97.2883 19.6659C98.4669 19.6659 99.3769 20.0125 100.018 20.7059C100.677 21.3992 101.006 22.4045 101.006 23.7219V30.0659C101.006 30.5859 101.05 30.9759 101.136 31.2359C101.223 31.4785 101.396 31.6432 101.656 31.7299C101.916 31.8165 102.324 31.8599 102.878 31.8599Z" fill="#5F8B64"/>
    <path d="M110.482 32.4839C109.268 32.4839 108.185 32.1979 107.232 31.6259C106.278 31.0539 105.533 30.2825 104.996 29.3119C104.476 28.3412 104.216 27.2839 104.216 26.1399C104.216 24.8052 104.562 23.6525 105.256 22.6819C105.949 21.6939 106.833 20.9485 107.908 20.4459C109 19.9432 110.109 19.6919 111.236 19.6919C112.449 19.6919 113.524 19.9952 114.46 20.6019C115.396 21.1912 116.115 21.9625 116.618 22.9159C117.12 23.8692 117.372 24.8659 117.372 25.9059C117.372 27.0672 117.06 28.1592 116.436 29.1819C115.812 30.1872 114.971 30.9932 113.914 31.5999C112.874 32.1892 111.73 32.4839 110.482 32.4839ZM111.132 31.9379C112.362 31.9379 113.342 31.4612 114.07 30.5079C114.815 29.5545 115.188 28.2285 115.188 26.5299C115.188 25.3859 114.997 24.3372 114.616 23.3839C114.234 22.4305 113.68 21.6765 112.952 21.1219C112.224 20.5499 111.357 20.2639 110.352 20.2639C109.086 20.2639 108.107 20.7145 107.414 21.6159C106.72 22.5172 106.374 23.7912 106.374 25.4379C106.374 26.6512 106.573 27.7519 106.972 28.7399C107.37 29.7279 107.925 30.5079 108.636 31.0799C109.364 31.6519 110.196 31.9379 111.132 31.9379Z" fill="#5F8B64"/>
    <path d="M131.651 20.0039C131.686 20.0039 131.703 20.0559 131.703 20.1599C131.703 20.2639 131.686 20.3159 131.651 20.3159C131.149 20.3159 130.707 20.4805 130.325 20.8099C129.961 21.1392 129.641 21.6592 129.363 22.3699L125.515 32.1459C125.498 32.2152 125.403 32.2499 125.229 32.2499C125.056 32.2499 124.961 32.2152 124.943 32.1459L120.185 22.1619C119.839 21.4339 119.535 20.9485 119.275 20.7059C119.015 20.4459 118.66 20.3159 118.209 20.3159C118.157 20.3159 118.131 20.2639 118.131 20.1599C118.131 20.0559 118.157 20.0039 118.209 20.0039L119.249 20.0299C119.804 20.0645 120.272 20.0819 120.653 20.0819C121.087 20.0819 121.615 20.0645 122.239 20.0299L123.357 20.0039C123.392 20.0039 123.409 20.0559 123.409 20.1599C123.409 20.2639 123.392 20.3159 123.357 20.3159C122.456 20.3159 122.005 20.5845 122.005 21.1219C122.005 21.3645 122.075 21.6245 122.213 21.9019L125.931 29.7019L128.765 22.2139C128.887 21.9019 128.947 21.6159 128.947 21.3559C128.947 20.6625 128.384 20.3159 127.257 20.3159C127.205 20.3159 127.179 20.2639 127.179 20.1599C127.179 20.0559 127.205 20.0039 127.257 20.0039L128.193 20.0299C128.713 20.0645 129.199 20.0819 129.649 20.0819C129.961 20.0819 130.308 20.0645 130.689 20.0299L131.651 20.0039Z" fill="#5F8B64"/>
</svg>
